HIERARCHY
ROOT Hips
{
	OFFSET 0.000000 0.000000 0.000000
	CHANNELS 6 Xposition Yposition Zposition Xrotation Yrotation Zrotation
	JOINT LeftUpLeg_virtual
	{
		OFFSET 0.000000 0.000000 0.000000
		CHANNELS 3 Xrotation Yrotation Zrotation
		JOINT LeftUpLeg
		{
			OFFSET 11.394100 -6.187798 -0.413800
			CHANNELS 3 Xrotation Yrotation Zrotation
			JOINT LeftLeg
			{
				OFFSET 0.430247 -32.302673 3.732800
				CHANNELS 3 Xrotation Yrotation Zrotation
				JOINT LeftFoot
				{
					OFFSET -0.430247 -48.264931 -6.423300
					CHANNELS 3 Xrotation Yrotation Zrotation
					JOINT LeftToeBase
					{
						OFFSET 4.230900 -16.068199 23.438400
						CHANNELS 3 Xrotation Yrotation Zrotation
						JOINT LeftToe_End
						{
							OFFSET 4.510700 0.695400 19.974600
							CHANNELS 3 Xrotation Yrotation Zrotation
							End Site
							{
								OFFSET 0 0 0
							}
						}
					}
				}
			}
		}
	}
	JOINT RightUpLeg_virtual
	{
		OFFSET 0.000000 0.000000 0.000000
		CHANNELS 3 Xrotation Yrotation Zrotation
		JOINT RightUpLeg
		{
			OFFSET -11.333700 -6.187798 -0.413800
			CHANNELS 3 Xrotation Yrotation Zrotation
			JOINT RightLeg
			{
				OFFSET -0.430392 -32.302628 3.733000
				CHANNELS 3 Xrotation Yrotation Zrotation
				JOINT RightFoot
				{
					OFFSET 0.430392 -48.264973 -6.423500
					CHANNELS 3 Xrotation Yrotation Zrotation
					JOINT RightToeBase
					{
						OFFSET -4.230900 -16.068199 23.438400
						CHANNELS 3 Xrotation Yrotation Zrotation
						JOINT RightToe_End
						{
							OFFSET -4.510700 0.695400 19.974600
							CHANNELS 3 Xrotation Yrotation Zrotation
							End Site
							{
								OFFSET 0 0 0
							}
						}
					}
				}
			}
		}
	}
	JOINT Spine_virtual
	{
		OFFSET 0.000000 0.000000 0.000000
		CHANNELS 3 Xrotation Yrotation Zrotation
		JOINT Spine
		{
			OFFSET -0.002400 12.777504 0.315300
			CHANNELS 3 Xrotation Yrotation Zrotation
			JOINT Spine1
			{
				OFFSET -0.002067 5.816869 0.032633
				CHANNELS 3 Xrotation Yrotation Zrotation
				JOINT Spine1_split
				{
					OFFSET -0.002067 5.816869 0.032633
					CHANNELS 3 Xrotation Yrotation Zrotation
					JOINT Spine2
					{
						OFFSET -0.002067 5.816869 0.032633
						CHANNELS 3 Xrotation Yrotation Zrotation
						JOINT Neck_virtual
						{
							OFFSET 0.000000 0.000000 0.000000
							CHANNELS 3 Xrotation Yrotation Zrotation
							JOINT Neck
							{
								OFFSET -0.003700 21.199493 -0.826900
								CHANNELS 3 Xrotation Yrotation Zrotation
								JOINT Head
								{
									OFFSET 0.000000 20.442200 4.834800
									CHANNELS 3 Xrotation Yrotation Zrotation
									JOINT HeadTop_End
									{
										OFFSET 0.000000 34.668396 4.968400
										CHANNELS 3 Xrotation Yrotation Zrotation
										End Site
										{
											OFFSET 0 0 0
										}
									}
								}
							}
						}
						JOINT LeftShoulder_virtual
						{
							OFFSET 0.000000 0.000000 0.000000
							CHANNELS 3 Xrotation Yrotation Zrotation
							JOINT LeftShoulder
							{
								OFFSET 3.288150 8.794197 -1.372250
								CHANNELS 3 Xrotation Yrotation Zrotation
								JOINT LeftShoulder_split
								{
									OFFSET 3.288150 8.794197 -1.372250
									CHANNELS 3 Xrotation Yrotation Zrotation
									JOINT LeftArm
									{
										OFFSET 11.953299 -2.279007 -0.146200
										CHANNELS 3 Xrotation Yrotation Zrotation
										JOINT LeftForeArm
										{
											OFFSET 18.448900 0.000000 0.000000
											CHANNELS 3 Xrotation Yrotation Zrotation
											JOINT LeftHand
											{
												OFFSET 29.527798 0.000000 0.000000
												CHANNELS 3 Xrotation Yrotation Zrotation
												End Site
												{
													OFFSET 0 0 0
												}
											}
										}
									}
								}
							}
						}
						JOINT RightShoulder_virtual
						{
							OFFSET 0.000000 0.000000 0.000000
							CHANNELS 3 Xrotation Yrotation Zrotation
							JOINT RightShoulder
							{
								OFFSET -3.249400 8.794197 -1.372250
								CHANNELS 3 Xrotation Yrotation Zrotation
								JOINT RightShoulder_split
								{
									OFFSET -3.249400 8.794197 -1.372250
									CHANNELS 3 Xrotation Yrotation Zrotation
									JOINT RightArm
									{
										OFFSET -11.953299 -2.279007 -0.146200
										CHANNELS 3 Xrotation Yrotation Zrotation
										JOINT RightForeArm
										{
											OFFSET -18.448900 0.000000 0.000000
											CHANNELS 3 Xrotation Yrotation Zrotation
											JOINT RightHand
											{
												OFFSET -29.527802 0.000000 0.000000
												CHANNELS 3 Xrotation Yrotation Zrotation
												End Site
												{
													OFFSET 0 0 0
												}
											}
										}
									}
								}
							}
						}
					}
				}
			}
		}
	}
}
MOTION
Frames: 4
Frame Time: 0.03333333
-8.829496 81.748505 -10.401405 0.000000 0.000000 0.000000 1.422256 16.433621 6.316006 -61.455624 6.630925 24.418070 56.811994 -16.492532 7.233054 8.843255 -4.594956 -16.644324 -0.608058 -5.075908 4.118338 0.000000 0.000000 0.000000 -0.136170 20.912359 6.651205 -31.336997 -3.698045 -20.270921 53.943229 15.257661 -9.954104 -26.913490 -8.637047 32.212313 11.532048 1.958658 -18.094553 0.000000 0.000000 0.000000 0.521318 18.242945 5.216966 -4.613027 4.460580 1.564403 14.610292 3.412446 -3.674361 0.225895 -1.395740 0.237126 0.000000 0.000000 0.000000 15.926384 4.099933 -0.273565 -27.066517 23.059352 17.700864 -6.931548 34.946926 -0.657471 0.000000 0.000000 0.000000 8.791232 1.516352 -1.900473 -4.719477 -23.032127 10.707165 -1.638806 -0.766580 -2.223246 -0.993318 38.111943 -75.467757 13.222049 -80.190191 18.359823 0.000000 0.000000 0.000000 8.322314 -0.101300 0.130602 1.757106 0.590237 -9.058663 -30.839025 4.060848 -11.442753 -21.254382 -2.231861 59.975270 2.023950 19.065599 2.513833 0.000000 0.000000 0.000000 
-9.020665 81.451164 -10.622307 0.000000 0.000000 0.000000 1.378573 16.704146 6.314228 -60.860728 6.273924 24.252731 57.176740 -16.463833 7.236941 8.726151 -4.324050 -16.012538 -1.112284 -5.034583 4.070097 0.000000 0.000000 0.000000 -0.296739 20.967733 6.635419 -32.124275 -3.463352 -20.526030 54.329910 15.319897 -9.988544 -26.714029 -8.365470 32.782299 11.450793 2.158074 -18.321110 0.000000 0.000000 0.000000 0.386356 17.682769 5.512290 -4.218497 4.329561 1.328204 14.703176 3.539789 -3.610111 0.174441 -1.317854 0.198965 0.000000 0.000000 0.000000 15.801192 4.253013 -0.237144 -27.196343 23.001393 17.601497 -7.438742 34.690025 -0.637012 0.000000 0.000000 0.000000 8.880947 1.690191 -1.901752 -4.681472 -22.639850 10.442181 -2.733461 -0.063569 -1.962806 -0.210929 38.442951 -75.090908 13.000506 -79.457804 17.999888 0.000000 0.000000 0.000000 8.190065 0.039638 0.068835 1.972644 2.362512 -8.695014 -31.018126 4.799222 -11.462517 -20.588263 -2.607082 58.865521 2.405438 14.770076 2.967022 0.000000 0.000000 0.000000 
-9.267583 81.125755 -10.598717 0.000000 0.000000 0.000000 1.238870 16.404258 6.351378 -59.821638 5.812773 24.171360 56.822584 -15.806579 6.895763 8.691760 -3.142629 -14.890687 -2.009759 -4.834368 3.605497 0.000000 0.000000 0.000000 -0.425948 20.447927 6.595928 -32.901933 -3.137827 -20.765662 54.764587 15.221688 -10.009825 -26.377736 -7.948081 33.419870 12.060687 2.432112 -18.374754 0.000000 0.000000 0.000000 0.047905 17.030370 5.738643 -3.665062 4.062970 0.890217 14.632758 3.673911 -3.581303 0.112681 -1.211143 0.173315 0.000000 0.000000 0.000000 15.364864 4.414700 -0.200999 -26.264275 23.555270 16.967259 -7.990354 34.892855 -0.601139 0.000000 0.000000 0.000000 8.787750 1.835765 -1.927237 -4.637835 -21.991910 10.036800 -3.782725 0.349974 -1.257554 0.977219 38.915174 -74.720856 14.053214 -79.287349 18.885770 0.000000 0.000000 0.000000 7.833162 0.223810 0.017278 2.184922 4.504420 -8.015300 -30.684755 5.073531 -11.568332 -19.086354 -2.011396 57.056542 3.562891 9.746512 3.546056 0.000000 0.000000 0.000000 
-9.502067 80.933395 -10.431324 0.000000 0.000000 0.000000 1.005675 15.506730 6.428598 -58.689220 5.407909 24.208400 55.564818 -14.834129 6.353365 9.170810 -1.647649 -13.786105 -3.031634 -4.492740 2.872579 0.000000 0.000000 0.000000 -0.559050 19.533265 6.609580 -33.419395 -2.857618 -20.935474 55.170518 14.847684 -10.042139 -26.317953 -7.692374 33.902672 13.445525 2.730628 -18.228911 0.000000 0.000000 0.000000 -0.261685 16.640436 5.866552 -3.021539 3.680378 0.331447 14.392238 3.795662 -3.627530 0.088618 -1.130876 0.193748 0.000000 0.000000 0.000000 14.752348 4.558419 -0.228452 -24.482676 24.518393 16.098344 -8.646372 35.482194 -0.370077 0.000000 0.000000 0.000000 8.550568 1.941641 -2.015893 -4.587936 -21.096813 9.636152 -4.646442 -0.072263 -0.478990 2.057600 39.175151 -74.354095 16.547843 -79.810296 21.131509 0.000000 0.000000 0.000000 7.328294 0.392224 -0.046735 2.364926 6.557410 -6.998160 -30.254381 4.200523 -11.474210 -16.673967 -0.415693 54.906081 5.181522 5.451921 4.302317 0.000000 0.000000 0.000000 
